<?xml version="1.0" encoding="UTF-8"?><!-- build:fc495d2681f02ee2b2004c55ca0fb3896bb7a029 --><svg xmlns="http://www.w3.org/2000/svg" width="495" height="230" viewBox="0 0 495 230"><circle cx="16" cy="18" r="0.70" fill="#d9ccff" fill-opacity="0.16"/><circle cx="44" cy="36" r="0.85" fill="#b8a3e4" fill-opacity="0.16"/><circle cx="96" cy="20" r="0.70" fill="#c97c2d" fill-opacity="0.16"/><circle cx="138" cy="51" r="0.85" fill="#d9ccff" fill-opacity="0.16"/><circle cx="179" cy="28" r="0.70" fill="#b8a3e4" fill-opacity="0.16"/><circle cx="234" cy="41" r="0.85" fill="#c97c2d" fill-opacity="0.16"/><circle cx="282" cy="17" r="0.70" fill="#d9ccff" fill-opacity="0.16"/><circle cx="342" cy="30" r="0.85" fill="#b8a3e4" fill-opacity="0.16"/><circle cx="408" cy="19" r="0.70" fill="#c97c2d" fill-opacity="0.16"/><circle cx="462" cy="44" r="0.85" fill="#d9ccff" fill-opacity="0.16"/><circle cx="26" cy="198" r="0.70" fill="#b8a3e4" fill-opacity="0.16"/><circle cx="72" cy="182" r="0.85" fill="#c97c2d" fill-opacity="0.16"/><circle cx="154" cy="194" r="0.70" fill="#d9ccff" fill-opacity="0.16"/><circle cx="212" cy="184" r="0.85" fill="#b8a3e4" fill-opacity="0.16"/><circle cx="269" cy="196" r="0.70" fill="#c97c2d" fill-opacity="0.16"/><circle cx="338" cy="181" r="0.85" fill="#d9ccff" fill-opacity="0.16"/><circle cx="422" cy="192" r="0.70" fill="#b8a3e4" fill-opacity="0.16"/><circle cx="472" cy="170" r="0.85" fill="#c97c2d" fill-opacity="0.16"/><rect width="495" height="230" rx="18" fill="#fffdfc" stroke="#d8cfef" stroke-opacity="0.35"/><text x="20" y="32" font-family="Liberation Sans, sans-serif" font-size="22" font-weight="700" fill="#7c3aed">Telemetry</text><text x="20" y="52" font-family="Liberation Sans, sans-serif" font-size="11" fill="#5d5470">aggregated from your public repositories</text><rect x="20" y="72" width="455" height="12" rx="6" fill="#f5f0ff" opacity="0.8"/><rect x="20.00" y="72" width="266.85" height="12" rx="6" fill="#7c3aed"/><rect x="286.85" y="72" width="55.58" height="12" rx="6" fill="#d39a52"/><rect x="342.44" y="72" width="54.97" height="12" rx="6" fill="#9a5f1c"/><rect x="397.40" y="72" width="41.05" height="12" rx="6" fill="#a78bfa"/><rect x="438.45" y="72" width="20.60" height="12" rx="6" fill="#c4b5fd"/><rect x="459.05" y="72" width="15.95" height="12" rx="6" fill="#8b5cf6"/><circle cx="26" cy="100" r="4" fill="#7c3aed"/><text x="36" y="104" font-family="Liberation Sans, sans-serif" font-size="11" fill="#1d1730">Dart 59%</text><circle cx="26" cy="123" r="4" fill="#d39a52"/><text x="36" y="127" font-family="Liberation Sans, sans-serif" font-size="11" fill="#1d1730">HTML 12%</text><circle cx="26" cy="146" r="4" fill="#9a5f1c"/><text x="36" y="150" font-family="Liberation Sans, sans-serif" font-size="11" fill="#1d1730">JS 12%</text><circle cx="26" cy="169" r="4" fill="#a78bfa"/><text x="36" y="173" font-family="Liberation Sans, sans-serif" font-size="11" fill="#1d1730">Java 9%</text><circle cx="26" cy="192" r="4" fill="#c4b5fd"/><text x="36" y="196" font-family="Liberation Sans, sans-serif" font-size="11" fill="#1d1730">C++ 5%</text><circle cx="26" cy="215" r="4" fill="#8b5cf6"/><text x="36" y="219" font-family="Liberation Sans, sans-serif" font-size="11" fill="#1d1730">CMake 4%</text><text x="344" y="216" font-family="Liberation Sans, sans-serif" font-size="10" fill="#5d5470">15 languages / 3423376 bytes</text></svg>