<?xml version="1.0" encoding="UTF-8"?><!-- build:67655509dffaaea84de058d3fd00dd798ea95603 --><svg xmlns="http://www.w3.org/2000/svg" width="495" height="230" viewBox="0 0 495 230"><rect width="495" height="230" rx="18" fill="#0d1527" stroke="#1f6f7a" stroke-opacity="0.35"/><text x="20" y="32" font-family="Liberation Sans, sans-serif" font-size="22" font-weight="700" fill="#54b7b2">Top languages</text><text x="20" y="52" font-family="Liberation Sans, sans-serif" font-size="11" fill="#9aa6a2">Aggregated from your public repositories</text><rect x="20" y="72" width="455" height="12" rx="6" fill="#0a1817" opacity="0.8"/><rect x="20.00" y="72" width="276.75" height="12" rx="6" fill="#54b7b2"/><rect x="296.75" y="72" width="57.64" height="12" rx="6" fill="#d39a52"/><rect x="354.39" y="72" width="42.57" height="12" rx="6" fill="#7c8bd6"/><rect x="396.96" y="72" width="40.14" height="12" rx="6" fill="#f56565"/><rect x="437.10" y="72" width="21.36" height="12" rx="6" fill="#8fc97f"/><rect x="458.46" y="72" width="16.54" height="12" rx="6" fill="#c084fc"/><circle cx="26" cy="100" r="4" fill="#54b7b2"/><text x="36" y="104" font-family="Liberation Sans, sans-serif" font-size="11" fill="#e8efe8">Dart 61%</text><circle cx="26" cy="123" r="4" fill="#d39a52"/><text x="36" y="127" font-family="Liberation Sans, sans-serif" font-size="11" fill="#e8efe8">HTML 13%</text><circle cx="26" cy="146" r="4" fill="#7c8bd6"/><text x="36" y="150" font-family="Liberation Sans, sans-serif" font-size="11" fill="#e8efe8">Java 9%</text><circle cx="26" cy="169" r="4" fill="#f56565"/><text x="36" y="173" font-family="Liberation Sans, sans-serif" font-size="11" fill="#e8efe8">JS 9%</text><circle cx="26" cy="192" r="4" fill="#8fc97f"/><text x="36" y="196" font-family="Liberation Sans, sans-serif" font-size="11" fill="#e8efe8">C++ 5%</text><circle cx="26" cy="215" r="4" fill="#c084fc"/><text x="36" y="219" font-family="Liberation Sans, sans-serif" font-size="11" fill="#e8efe8">CMake 4%</text><text x="344" y="216" font-family="Liberation Sans, sans-serif" font-size="10" fill="#9aa6a2">15 languages / 3298485 bytes</text></svg>