<?xml version="1.0" encoding="UTF-8"?>
<svg xmlns="http://www.w3.org/2000/svg" width="1140" height="754" viewBox="0 0 1140 754" role="img" aria-labelledby="title desc">
<title id="title">Featured projects</title>
<desc id="desc">Clickable project cards generated from live GitHub repository data.</desc>
<!-- build:67655509dffaaea84de058d3fd00dd798ea95603 -->
<rect width="1140" height="754" rx="24" fill="#070f0e"/>
<rect x="0" y="0" width="1140" height="754" rx="24" fill="none" stroke="#233c39"/>
<rect x="58" y="58" width="1024" height="696" rx="24" fill="#0a1817" stroke="#173330"/>
<text x="116" y="114" fill="#f4efe7" font-size="24" font-weight="800">Featured Projects</text>
<text x="116" y="134" fill="#c7d0cc" font-size="13">Selected public work across web, mobile, backend, and product systems.</text>
<rect x="116" y="144" width="872" height="2" fill="url(#accent-line)" />
<defs>
<linearGradient id="accent-line" x1="0" y1="0" x2="1" y2="0"><stop offset="0%" stop-color="#54b7b2"/><stop offset="50%" stop-color="#d39a52"/><stop offset="100%" stop-color="#8fc97f"/></linearGradient>
</defs>
<a href="https://github.com/kalaabalb/familyacademy.et"><g transform="translate(76 154)"><rect width="486" height="176" rx="18" fill="#0b1716" stroke="#173330"/><rect x="18" y="16" width="42" height="5" rx="2.5" fill="#54b7b2"/><text x="18" y="39" font-size="10" fill="#c7d0cc">• kalaabalb/familyacademy.et</text><rect x="18" y="50" width="46" height="46" rx="13" fill="#122826" stroke="#54b7b2" stroke-width="1.6"/><rect x="22" y="54" width="38" height="38" rx="11" fill="#54b7b2" fill-opacity="0.10"/><text x="41" y="79" text-anchor="middle" fill="#54b7b2" font-size="16" font-weight="800">FA</text><text x="78" y="55" fill="#f4efe7" font-size="21" font-weight="800">familyacademy.et</text><text x="78" y="79" fill="#c7d0cc" font-size="14"><tspan x="78" dy="0">Cinematic public landing page and</tspan><tspan x="78" dy="17">download hub.</tspan></text><rect x="18" y="120" width="54" height="22" rx="11" fill="#132523" stroke="#5e8f89"/><text x="45.0" y="135" text-anchor="middle" font-size="11" fill="#c7d0cc">Brand</text><rect x="80" y="120" width="54" height="22" rx="11" fill="#132523" stroke="#5e8f89"/><text x="107.0" y="135" text-anchor="middle" font-size="11" fill="#c7d0cc">SEO</text><rect x="142" y="120" width="73" height="22" rx="11" fill="#132523" stroke="#5e8f89"/><text x="178.5" y="135" text-anchor="middle" font-size="11" fill="#c7d0cc">Downloads</text><text x="18" y="156" font-size="12" fill="#c7d0cc">★ 0 · updated 3d ago</text><circle cx="440" cy="84" r="28" fill="none" stroke="#203532" stroke-width="10"/><circle cx="440" cy="84" r="28" fill="none" stroke="#54b7b2" stroke-width="10" stroke-linecap="round" transform="rotate(-90 440 84)" stroke-dasharray="138.88 37.05" stroke-dashoffset="-0.00"><animate attributeName="stroke-dasharray" values="138.88 37.05;145.83 30.10;138.88 37.05" dur="6s" repeatCount="indefinite"/></circle><circle cx="440" cy="84" r="28" fill="none" stroke="#54b7b2" stroke-width="10" stroke-linecap="round" transform="rotate(-90 440 84)" stroke-dasharray="20.39 155.54" stroke-dashoffset="-138.88"><animate attributeName="stroke-dasharray" values="20.39 155.54;21.41 154.52;20.39 155.54" dur="6s" repeatCount="indefinite"/></circle><circle cx="440" cy="84" r="28" fill="none" stroke="#8fc97f" stroke-width="10" stroke-linecap="round" transform="rotate(-90 440 84)" stroke-dasharray="16.65 159.27" stroke-dashoffset="-159.27"><animate attributeName="stroke-dasharray" values="16.65 159.27;17.49 158.44;16.65 159.27" dur="6s" repeatCount="indefinite"/></circle><circle cx="330" cy="38" r="4" fill="#54b7b2"/><text x="404" y="42" text-anchor="end" font-size="10" fill="#c7d0cc">HTML 79%</text><circle cx="330" cy="56" r="4" fill="#54b7b2"/><text x="404" y="60" text-anchor="end" font-size="10" fill="#c7d0cc">JS 12%</text><circle cx="330" cy="74" r="4" fill="#8fc97f"/><text x="404" y="78" text-anchor="end" font-size="10" fill="#c7d0cc">CSS 9%</text><circle cx="468" cy="18" r="4" fill="#54b7b2" fill-opacity="0.9"/><text x="468" y="160" text-anchor="end" font-size="11" fill="#c7d0cc">github.com/kalaabalb/familyacademy.et</text></g></a>
<a href="https://github.com/kalaabalb/family-academy-client"><g transform="translate(578 154)"><rect width="486" height="176" rx="18" fill="#0b1716" stroke="#173330"/><rect x="18" y="16" width="42" height="5" rx="2.5" fill="#a78bfa"/><text x="18" y="39" font-size="10" fill="#c7d0cc">• kalaabalb/family-academy-client</text><rect x="18" y="50" width="46" height="46" rx="13" fill="#122826" stroke="#a78bfa" stroke-width="1.6"/><rect x="22" y="54" width="38" height="38" rx="11" fill="#a78bfa" fill-opacity="0.10"/><text x="41" y="79" text-anchor="middle" fill="#a78bfa" font-size="16" font-weight="800">FAC</text><text x="78" y="55" fill="#f4efe7" font-size="21" font-weight="800">family-academy-client</text><text x="78" y="79" fill="#c7d0cc" font-size="14"><tspan x="78" dy="0">Client app for the Family Academy</tspan><tspan x="78" dy="17">ecosystem.</tspan></text><rect x="18" y="120" width="87" height="22" rx="11" fill="#132523" stroke="#5e8f89"/><text x="61.5" y="135" text-anchor="middle" font-size="11" fill="#c7d0cc">Product App</text><rect x="113" y="120" width="73" height="22" rx="11" fill="#132523" stroke="#5e8f89"/><text x="149.5" y="135" text-anchor="middle" font-size="11" fill="#c7d0cc">User Flow</text><text x="18" y="156" font-size="12" fill="#c7d0cc">★ 0 · updated just now</text><circle cx="440" cy="84" r="28" fill="none" stroke="#203532" stroke-width="10"/><circle cx="468" cy="18" r="4" fill="#a78bfa" fill-opacity="0.9"/><text x="468" y="160" text-anchor="end" font-size="11" fill="#c7d0cc">github.com/kalaabalb/family-academy-cl…</text></g></a>
<a href="https://github.com/kalaabalb/ecommerce-backend-api"><g transform="translate(76 346)"><rect width="486" height="176" rx="18" fill="#0b1716" stroke="#173330"/><rect x="18" y="16" width="42" height="5" rx="2.5" fill="#22c55e"/><text x="18" y="39" font-size="10" fill="#c7d0cc">• kalaabalb/ecommerce-backend-api</text><rect x="18" y="50" width="46" height="46" rx="13" fill="#122826" stroke="#22c55e" stroke-width="1.6"/><rect x="22" y="54" width="38" height="38" rx="11" fill="#22c55e" fill-opacity="0.10"/><text x="41" y="79" text-anchor="middle" fill="#22c55e" font-size="16" font-weight="800">EBA</text><text x="78" y="55" fill="#f4efe7" font-size="21" font-weight="800">ecommerce-backend-api</text><text x="78" y="79" fill="#c7d0cc" font-size="14"><tspan x="78" dy="0">Backend API for the e-commerce system.</tspan></text><rect x="18" y="116" width="54" height="22" rx="11" fill="#132523" stroke="#5e8f89"/><text x="45.0" y="131" text-anchor="middle" font-size="11" fill="#c7d0cc">API</text><rect x="80" y="116" width="73" height="22" rx="11" fill="#132523" stroke="#5e8f89"/><text x="116.5" y="131" text-anchor="middle" font-size="11" fill="#c7d0cc">Data Flow</text><rect x="161" y="116" width="54" height="22" rx="11" fill="#132523" stroke="#5e8f89"/><text x="188.0" y="131" text-anchor="middle" font-size="11" fill="#c7d0cc">Node</text><text x="18" y="156" font-size="12" fill="#c7d0cc">★ 0 · updated 1mo ago</text><circle cx="440" cy="84" r="28" fill="none" stroke="#203532" stroke-width="10"/><circle cx="440" cy="84" r="28" fill="none" stroke="#54b7b2" stroke-width="10" stroke-linecap="round" transform="rotate(-90 440 84)" stroke-dasharray="175.93 0.00" stroke-dashoffset="-0.00"><animate attributeName="stroke-dasharray" values="175.93 0.00;184.73 -8.80;175.93 0.00" dur="6s" repeatCount="indefinite"/></circle><circle cx="330" cy="38" r="4" fill="#54b7b2"/><text x="404" y="42" text-anchor="end" font-size="10" fill="#c7d0cc">JS 100%</text><circle cx="468" cy="18" r="4" fill="#22c55e" fill-opacity="0.9"/><text x="468" y="160" text-anchor="end" font-size="11" fill="#c7d0cc">github.com/kalaabalb/ecommerce-back…</text></g></a>
<a href="https://github.com/kalaabalb/e-commerce-app"><g transform="translate(578 346)"><rect width="486" height="176" rx="18" fill="#0b1716" stroke="#173330"/><rect x="18" y="16" width="42" height="5" rx="2.5" fill="#fb7185"/><text x="18" y="39" font-size="10" fill="#c7d0cc">• kalaabalb/e-commerce-app</text><rect x="18" y="50" width="46" height="46" rx="13" fill="#122826" stroke="#fb7185" stroke-width="1.6"/><rect x="22" y="54" width="38" height="38" rx="11" fill="#fb7185" fill-opacity="0.10"/><text x="41" y="79" text-anchor="middle" fill="#fb7185" font-size="16" font-weight="800">ECA</text><text x="78" y="55" fill="#f4efe7" font-size="21" font-weight="800">e-commerce-app</text><text x="78" y="79" fill="#c7d0cc" font-size="14"><tspan x="78" dy="0">Flutter commerce app with a public</tspan><tspan x="78" dy="17">footprint.</tspan></text><rect x="18" y="120" width="59" height="22" rx="11" fill="#132523" stroke="#5e8f89"/><text x="47.5" y="135" text-anchor="middle" font-size="11" fill="#c7d0cc">Flutter</text><rect x="85" y="120" width="73" height="22" rx="11" fill="#132523" stroke="#5e8f89"/><text x="121.5" y="135" text-anchor="middle" font-size="11" fill="#c7d0cc">Mobile UI</text><rect x="166" y="120" width="80" height="22" rx="11" fill="#132523" stroke="#5e8f89"/><text x="206.0" y="135" text-anchor="middle" font-size="11" fill="#c7d0cc">Storefront</text><text x="18" y="156" font-size="12" fill="#c7d0cc">★ 1 · updated 1mo ago</text><circle cx="440" cy="84" r="28" fill="none" stroke="#203532" stroke-width="10"/><circle cx="440" cy="84" r="28" fill="none" stroke="#54b7b2" stroke-width="10" stroke-linecap="round" transform="rotate(-90 440 84)" stroke-dasharray="148.31 27.62" stroke-dashoffset="-0.00"><animate attributeName="stroke-dasharray" values="148.31 27.62;155.73 20.20;148.31 27.62" dur="6s" repeatCount="indefinite"/></circle><circle cx="440" cy="84" r="28" fill="none" stroke="#54b7b2" stroke-width="10" stroke-linecap="round" transform="rotate(-90 440 84)" stroke-dasharray="19.95 155.98" stroke-dashoffset="-148.31"><animate attributeName="stroke-dasharray" values="19.95 155.98;20.95 154.98;19.95 155.98" dur="6s" repeatCount="indefinite"/></circle><circle cx="440" cy="84" r="28" fill="none" stroke="#d39a52" stroke-width="10" stroke-linecap="round" transform="rotate(-90 440 84)" stroke-dasharray="3.90 172.03" stroke-dashoffset="-168.26"><animate attributeName="stroke-dasharray" values="3.90 172.03;4.09 171.84;3.90 172.03" dur="6s" repeatCount="indefinite"/></circle><circle cx="330" cy="38" r="4" fill="#54b7b2"/><text x="404" y="42" text-anchor="end" font-size="10" fill="#c7d0cc">Dart 84%</text><circle cx="330" cy="56" r="4" fill="#54b7b2"/><text x="404" y="60" text-anchor="end" font-size="10" fill="#c7d0cc">JS 11%</text><circle cx="330" cy="74" r="4" fill="#d39a52"/><text x="404" y="78" text-anchor="end" font-size="10" fill="#c7d0cc">C++ 2%</text><circle cx="468" cy="18" r="4" fill="#fb7185" fill-opacity="0.9"/><text x="468" y="160" text-anchor="end" font-size="11" fill="#c7d0cc">github.com/kalaabalb/e-commerce-app</text></g></a>
<a href="https://github.com/kalaabalb/force"><g transform="translate(76 538)"><rect width="486" height="176" rx="18" fill="#0b1716" stroke="#173330"/><rect x="18" y="16" width="42" height="5" rx="2.5" fill="#f59e0b"/><text x="18" y="39" font-size="10" fill="#c7d0cc">• kalaabalb/force</text><rect x="18" y="50" width="46" height="46" rx="13" fill="#122826" stroke="#f59e0b" stroke-width="1.6"/><rect x="22" y="54" width="38" height="38" rx="11" fill="#f59e0b" fill-opacity="0.10"/><text x="41" y="79" text-anchor="middle" fill="#f59e0b" font-size="16" font-weight="800">FO</text><text x="78" y="55" fill="#f4efe7" font-size="21" font-weight="800">force</text><text x="78" y="79" fill="#c7d0cc" font-size="14"><tspan x="78" dy="0">School management system for grading</tspan><tspan x="78" dy="17">workflows.</tspan></text><rect x="18" y="120" width="54" height="22" rx="11" fill="#132523" stroke="#5e8f89"/><text x="45.0" y="135" text-anchor="middle" font-size="11" fill="#c7d0cc">Java</text><rect x="80" y="120" width="66" height="22" rx="11" fill="#132523" stroke="#5e8f89"/><text x="113.0" y="135" text-anchor="middle" font-size="11" fill="#c7d0cc">Students</text><rect x="154" y="120" width="66" height="22" rx="11" fill="#132523" stroke="#5e8f89"/><text x="187.0" y="135" text-anchor="middle" font-size="11" fill="#c7d0cc">Teachers</text><text x="18" y="156" font-size="12" fill="#c7d0cc">★ 0 · updated 1y ago</text><circle cx="440" cy="84" r="28" fill="none" stroke="#203532" stroke-width="10"/><circle cx="440" cy="84" r="28" fill="none" stroke="#d39a52" stroke-width="10" stroke-linecap="round" transform="rotate(-90 440 84)" stroke-dasharray="169.43 6.49" stroke-dashoffset="-0.00"><animate attributeName="stroke-dasharray" values="169.43 6.49;177.91 -1.98;169.43 6.49" dur="6s" repeatCount="indefinite"/></circle><circle cx="440" cy="84" r="28" fill="none" stroke="#d39a52" stroke-width="10" stroke-linecap="round" transform="rotate(-90 440 84)" stroke-dasharray="6.49 169.43" stroke-dashoffset="-169.43"><animate attributeName="stroke-dasharray" values="6.49 169.43;6.82 169.11;6.49 169.43" dur="6s" repeatCount="indefinite"/></circle><circle cx="330" cy="38" r="4" fill="#d39a52"/><text x="404" y="42" text-anchor="end" font-size="10" fill="#c7d0cc">Java 96%</text><circle cx="330" cy="56" r="4" fill="#d39a52"/><text x="404" y="60" text-anchor="end" font-size="10" fill="#c7d0cc">CSS 4%</text><circle cx="468" cy="18" r="4" fill="#f59e0b" fill-opacity="0.9"/><text x="468" y="160" text-anchor="end" font-size="11" fill="#c7d0cc">github.com/kalaabalb/force</text></g></a>
<a href="https://github.com/kalaabalb/yomoblies"><g transform="translate(578 538)"><rect width="486" height="176" rx="18" fill="#0b1716" stroke="#173330"/><rect x="18" y="16" width="42" height="5" rx="2.5" fill="#60a5fa"/><text x="18" y="39" font-size="10" fill="#c7d0cc">• kalaabalb/yomoblies</text><rect x="18" y="50" width="46" height="46" rx="13" fill="#122826" stroke="#60a5fa" stroke-width="1.6"/><rect x="22" y="54" width="38" height="38" rx="11" fill="#60a5fa" fill-opacity="0.10"/><text x="41" y="79" text-anchor="middle" fill="#60a5fa" font-size="16" font-weight="800">YO</text><text x="78" y="55" fill="#f4efe7" font-size="21" font-weight="800">yomoblies</text><text x="78" y="79" fill="#c7d0cc" font-size="14"><tspan x="78" dy="0">Dart project with active recent development.</tspan></text><rect x="18" y="116" width="54" height="22" rx="11" fill="#132523" stroke="#5e8f89"/><text x="45.0" y="131" text-anchor="middle" font-size="11" fill="#c7d0cc">Dart</text><rect x="80" y="116" width="54" height="22" rx="11" fill="#132523" stroke="#5e8f89"/><text x="107.0" y="131" text-anchor="middle" font-size="11" fill="#c7d0cc">Mobile</text><rect x="142" y="116" width="54" height="22" rx="11" fill="#132523" stroke="#5e8f89"/><text x="169.0" y="131" text-anchor="middle" font-size="11" fill="#c7d0cc">Active</text><text x="18" y="156" font-size="12" fill="#c7d0cc">★ 0 · updated 7mo ago</text><circle cx="440" cy="84" r="28" fill="none" stroke="#203532" stroke-width="10"/><circle cx="440" cy="84" r="28" fill="none" stroke="#54b7b2" stroke-width="10" stroke-linecap="round" transform="rotate(-90 440 84)" stroke-dasharray="156.84 19.08" stroke-dashoffset="-0.00"><animate attributeName="stroke-dasharray" values="156.84 19.08;164.69 11.24;156.84 19.08" dur="6s" repeatCount="indefinite"/></circle><circle cx="440" cy="84" r="28" fill="none" stroke="#d39a52" stroke-width="10" stroke-linecap="round" transform="rotate(-90 440 84)" stroke-dasharray="10.00 165.93" stroke-dashoffset="-156.84"><animate attributeName="stroke-dasharray" values="10.00 165.93;10.50 165.43;10.00 165.93" dur="6s" repeatCount="indefinite"/></circle><circle cx="440" cy="84" r="28" fill="none" stroke="#8fc97f" stroke-width="10" stroke-linecap="round" transform="rotate(-90 440 84)" stroke-dasharray="7.49 168.44" stroke-dashoffset="-166.84"><animate attributeName="stroke-dasharray" values="7.49 168.44;7.87 168.06;7.49 168.44" dur="6s" repeatCount="indefinite"/></circle><circle cx="330" cy="38" r="4" fill="#54b7b2"/><text x="404" y="42" text-anchor="end" font-size="10" fill="#c7d0cc">Dart 89%</text><circle cx="330" cy="56" r="4" fill="#d39a52"/><text x="404" y="60" text-anchor="end" font-size="10" fill="#c7d0cc">C++ 6%</text><circle cx="330" cy="74" r="4" fill="#8fc97f"/><text x="404" y="78" text-anchor="end" font-size="10" fill="#c7d0cc">CM 4%</text><circle cx="468" cy="18" r="4" fill="#60a5fa" fill-opacity="0.9"/><text x="468" y="160" text-anchor="end" font-size="11" fill="#c7d0cc">github.com/kalaabalb/yomoblies</text></g></a>
</svg>