<?xml version="1.0" encoding="UTF-8"?>
<svg xmlns="http://www.w3.org/2000/svg" width="1140" height="754" viewBox="0 0 1140 754" role="img" aria-labelledby="title desc">
<title id="title">Featured projects</title>
<desc id="desc">Clickable project cards generated from live GitHub repository data.</desc>
<!-- build:fc0bfc7a00c1603665e1306fcebe3977f17461c1 -->
<rect width="1140" height="754" rx="24" fill="#f7f4ee"/>
<rect x="0" y="0" width="1140" height="754" rx="24" fill="none" stroke="#d5cec2"/>
<rect x="58" y="58" width="1024" height="696" rx="24" fill="#ffffff" stroke="#dad4c9"/>
<text x="116" y="114" fill="#1a2020" font-size="24" font-weight="800">Featured Projects</text>
<text x="116" y="134" fill="#514f49" font-size="13">Selected public work across web, mobile, backend, and product systems.</text>
<rect x="116" y="144" width="872" height="2" fill="url(#accent-line)" />
<defs>
<linearGradient id="accent-line" x1="0" y1="0" x2="1" y2="0"><stop offset="0%" stop-color="#0f6e56"/><stop offset="50%" stop-color="#95611f"/><stop offset="100%" stop-color="#3b6d11"/></linearGradient>
</defs>
<a href="https://github.com/kalaabalb/familyacademy.et"><g transform="translate(58 154)"><rect width="340" height="176" rx="18" fill="#ffffff" stroke="#dad4c9"/><rect x="18" y="16" width="42" height="5" rx="2.5" fill="#0f6e56"/><circle cx="32" cy="54" r="18" fill="#ecf5f0" stroke="#0f6e56"/><text x="32" y="60" text-anchor="middle" fill="#0f6e56" font-size="15" font-weight="800">FE</text><text x="60" y="50" fill="#1a2020" font-size="22" font-weight="800">familyacade…</text><text x="60" y="50" dx="140" fill="#1a2020" font-size="22" font-weight="800" opacity="0.9">_<animate attributeName="opacity" values="0;1;1;0" dur="1.1s" repeatCount="indefinite"/></text><text x="60" y="76" fill="#514f49" font-size="14"><tspan x="60" dy="0">Cinematic public landing</tspan><tspan x="60" dy="17">page and download hub.</tspan></text><rect x="18" y="122" width="54" height="22" rx="11" fill="#f4ede2" stroke="#c6b9a5"/><text x="45.0" y="137" text-anchor="middle" font-size="11" fill="#1a2020">Brand</text><rect x="80" y="122" width="54" height="22" rx="11" fill="#f4ede2" stroke="#c6b9a5"/><text x="107.0" y="137" text-anchor="middle" font-size="11" fill="#1a2020">SEO</text><rect x="142" y="122" width="73" height="22" rx="11" fill="#f4ede2" stroke="#c6b9a5"/><text x="178.5" y="137" text-anchor="middle" font-size="11" fill="#1a2020">Downloads</text><text x="18" y="156" font-size="12" fill="#514f49">★ 0 · updated 2d ago</text><circle cx="294" cy="84" r="28" fill="none" stroke="#e6ddd1" stroke-width="10"/><circle cx="294" cy="84" r="28" fill="none" stroke="#0f6e56" stroke-width="10" stroke-linecap="round" transform="rotate(-90 294 84)" stroke-dasharray="138.88 37.05" stroke-dashoffset="-0.00"><animate attributeName="stroke-dasharray" values="138.88 37.05;145.83 30.10;138.88 37.05" dur="6s" repeatCount="indefinite"/></circle><circle cx="294" cy="84" r="28" fill="none" stroke="#0f6e56" stroke-width="10" stroke-linecap="round" transform="rotate(-90 294 84)" stroke-dasharray="20.39 155.54" stroke-dashoffset="-138.88"><animate attributeName="stroke-dasharray" values="20.39 155.54;21.41 154.52;20.39 155.54" dur="6s" repeatCount="indefinite"/></circle><circle cx="294" cy="84" r="28" fill="none" stroke="#3b6d11" stroke-width="10" stroke-linecap="round" transform="rotate(-90 294 84)" stroke-dasharray="16.65 159.27" stroke-dashoffset="-159.27"><animate attributeName="stroke-dasharray" values="16.65 159.27;17.49 158.44;16.65 159.27" dur="6s" repeatCount="indefinite"/></circle><circle cx="184" cy="38" r="4" fill="#0f6e56"/><text x="258" y="42" text-anchor="end" font-size="10" fill="#514f49">HTML 79%</text><circle cx="184" cy="56" r="4" fill="#0f6e56"/><text x="258" y="60" text-anchor="end" font-size="10" fill="#514f49">JS 12%</text><circle cx="184" cy="74" r="4" fill="#3b6d11"/><text x="258" y="78" text-anchor="end" font-size="10" fill="#514f49">CSS 9%</text><text x="278" y="160" text-anchor="middle" font-size="11" fill="#514f49">← click to open</text></g></a>
<a href="https://github.com/kalaabalb/family-academy-client"><g transform="translate(420 154)"><rect width="340" height="176" rx="18" fill="#ffffff" stroke="#dad4c9"/><rect x="18" y="16" width="42" height="5" rx="2.5" fill="#0f6e56"/><circle cx="32" cy="54" r="18" fill="#ecf5f0" stroke="#0f6e56"/><text x="32" y="60" text-anchor="middle" fill="#0f6e56" font-size="15" font-weight="800">FAC</text><text x="60" y="50" fill="#1a2020" font-size="22" font-weight="800">family-acade…</text><text x="60" y="50" dx="151" fill="#1a2020" font-size="22" font-weight="800" opacity="0.9">_<animate attributeName="opacity" values="0;1;1;0" dur="1.1s" repeatCount="indefinite"/></text><text x="60" y="76" fill="#514f49" font-size="14"><tspan x="60" dy="0">Client app for the Family</tspan><tspan x="60" dy="17">Academy ecosystem.</tspan></text><rect x="18" y="122" width="87" height="22" rx="11" fill="#f4ede2" stroke="#c6b9a5"/><text x="61.5" y="137" text-anchor="middle" font-size="11" fill="#1a2020">Product App</text><rect x="113" y="122" width="73" height="22" rx="11" fill="#f4ede2" stroke="#c6b9a5"/><text x="149.5" y="137" text-anchor="middle" font-size="11" fill="#1a2020">User Flow</text><text x="18" y="156" font-size="12" fill="#514f49">★ 0 · updated just now</text><circle cx="294" cy="84" r="28" fill="none" stroke="#e6ddd1" stroke-width="10"/><text x="278" y="160" text-anchor="middle" font-size="11" fill="#514f49">← click to open</text></g></a>
<a href="https://github.com/kalaabalb/ecommerce-backend-api"><g transform="translate(58 346)"><rect width="340" height="176" rx="18" fill="#ffffff" stroke="#dad4c9"/><rect x="18" y="16" width="42" height="5" rx="2.5" fill="#0f6e56"/><circle cx="32" cy="54" r="18" fill="#ecf5f0" stroke="#0f6e56"/><text x="32" y="60" text-anchor="middle" fill="#0f6e56" font-size="15" font-weight="800">EBA</text><text x="60" y="50" fill="#1a2020" font-size="22" font-weight="800">ecommerce-…</text><text x="60" y="50" dx="129" fill="#1a2020" font-size="22" font-weight="800" opacity="0.9">_<animate attributeName="opacity" values="0;1;1;0" dur="1.1s" repeatCount="indefinite"/></text><text x="60" y="76" fill="#514f49" font-size="14"><tspan x="60" dy="0">Backend API for the</tspan><tspan x="60" dy="17">e-commerce system.</tspan></text><rect x="18" y="122" width="54" height="22" rx="11" fill="#f4ede2" stroke="#c6b9a5"/><text x="45.0" y="137" text-anchor="middle" font-size="11" fill="#1a2020">API</text><rect x="80" y="122" width="73" height="22" rx="11" fill="#f4ede2" stroke="#c6b9a5"/><text x="116.5" y="137" text-anchor="middle" font-size="11" fill="#1a2020">Data Flow</text><rect x="161" y="122" width="54" height="22" rx="11" fill="#f4ede2" stroke="#c6b9a5"/><text x="188.0" y="137" text-anchor="middle" font-size="11" fill="#1a2020">Node</text><text x="18" y="156" font-size="12" fill="#514f49">★ 0 · updated 1mo ago</text><circle cx="294" cy="84" r="28" fill="none" stroke="#e6ddd1" stroke-width="10"/><circle cx="294" cy="84" r="28" fill="none" stroke="#0f6e56" stroke-width="10" stroke-linecap="round" transform="rotate(-90 294 84)" stroke-dasharray="175.93 0.00" stroke-dashoffset="-0.00"><animate attributeName="stroke-dasharray" values="175.93 0.00;184.73 -8.80;175.93 0.00" dur="6s" repeatCount="indefinite"/></circle><circle cx="184" cy="38" r="4" fill="#0f6e56"/><text x="258" y="42" text-anchor="end" font-size="10" fill="#514f49">JS 100%</text><text x="278" y="160" text-anchor="middle" font-size="11" fill="#514f49">← click to open</text></g></a>
<a href="https://github.com/kalaabalb/e-commerce-app"><g transform="translate(420 346)"><rect width="340" height="176" rx="18" fill="#ffffff" stroke="#dad4c9"/><rect x="18" y="16" width="42" height="5" rx="2.5" fill="#0f6e56"/><circle cx="32" cy="54" r="18" fill="#ecf5f0" stroke="#0f6e56"/><text x="32" y="60" text-anchor="middle" fill="#0f6e56" font-size="15" font-weight="800">ECA</text><text x="60" y="50" fill="#1a2020" font-size="22" font-weight="800">e-commerce-…</text><text x="60" y="50" dx="140" fill="#1a2020" font-size="22" font-weight="800" opacity="0.9">_<animate attributeName="opacity" values="0;1;1;0" dur="1.1s" repeatCount="indefinite"/></text><text x="60" y="76" fill="#514f49" font-size="14"><tspan x="60" dy="0">Flutter commerce app with</tspan><tspan x="60" dy="17">a public footprint.</tspan></text><rect x="18" y="122" width="59" height="22" rx="11" fill="#f4ede2" stroke="#c6b9a5"/><text x="47.5" y="137" text-anchor="middle" font-size="11" fill="#1a2020">Flutter</text><rect x="85" y="122" width="73" height="22" rx="11" fill="#f4ede2" stroke="#c6b9a5"/><text x="121.5" y="137" text-anchor="middle" font-size="11" fill="#1a2020">Mobile UI</text><rect x="166" y="122" width="80" height="22" rx="11" fill="#f4ede2" stroke="#c6b9a5"/><text x="206.0" y="137" text-anchor="middle" font-size="11" fill="#1a2020">Storefront</text><text x="18" y="156" font-size="12" fill="#514f49">★ 1 · updated 1mo ago</text><circle cx="294" cy="84" r="28" fill="none" stroke="#e6ddd1" stroke-width="10"/><circle cx="294" cy="84" r="28" fill="none" stroke="#0f6e56" stroke-width="10" stroke-linecap="round" transform="rotate(-90 294 84)" stroke-dasharray="148.31 27.62" stroke-dashoffset="-0.00"><animate attributeName="stroke-dasharray" values="148.31 27.62;155.73 20.20;148.31 27.62" dur="6s" repeatCount="indefinite"/></circle><circle cx="294" cy="84" r="28" fill="none" stroke="#0f6e56" stroke-width="10" stroke-linecap="round" transform="rotate(-90 294 84)" stroke-dasharray="19.95 155.98" stroke-dashoffset="-148.31"><animate attributeName="stroke-dasharray" values="19.95 155.98;20.95 154.98;19.95 155.98" dur="6s" repeatCount="indefinite"/></circle><circle cx="294" cy="84" r="28" fill="none" stroke="#95611f" stroke-width="10" stroke-linecap="round" transform="rotate(-90 294 84)" stroke-dasharray="3.90 172.03" stroke-dashoffset="-168.26"><animate attributeName="stroke-dasharray" values="3.90 172.03;4.09 171.84;3.90 172.03" dur="6s" repeatCount="indefinite"/></circle><circle cx="184" cy="38" r="4" fill="#0f6e56"/><text x="258" y="42" text-anchor="end" font-size="10" fill="#514f49">Dart 84%</text><circle cx="184" cy="56" r="4" fill="#0f6e56"/><text x="258" y="60" text-anchor="end" font-size="10" fill="#514f49">JS 11%</text><circle cx="184" cy="74" r="4" fill="#95611f"/><text x="258" y="78" text-anchor="end" font-size="10" fill="#514f49">C++ 2%</text><text x="278" y="160" text-anchor="middle" font-size="11" fill="#514f49">← click to open</text></g></a>
<a href="https://github.com/kalaabalb/force"><g transform="translate(58 538)"><rect width="340" height="176" rx="18" fill="#ffffff" stroke="#dad4c9"/><rect x="18" y="16" width="42" height="5" rx="2.5" fill="#0f6e56"/><circle cx="32" cy="54" r="18" fill="#ecf5f0" stroke="#0f6e56"/><text x="32" y="60" text-anchor="middle" fill="#0f6e56" font-size="15" font-weight="800">FO</text><text x="60" y="50" fill="#1a2020" font-size="22" font-weight="800">force</text><text x="60" y="50" dx="63" fill="#1a2020" font-size="22" font-weight="800" opacity="0.9">_<animate attributeName="opacity" values="0;1;1;0" dur="1.1s" repeatCount="indefinite"/></text><text x="60" y="76" fill="#514f49" font-size="14"><tspan x="60" dy="0">School management</tspan><tspan x="60" dy="17">system for grading</tspan></text><rect x="18" y="122" width="54" height="22" rx="11" fill="#f4ede2" stroke="#c6b9a5"/><text x="45.0" y="137" text-anchor="middle" font-size="11" fill="#1a2020">Java</text><rect x="80" y="122" width="66" height="22" rx="11" fill="#f4ede2" stroke="#c6b9a5"/><text x="113.0" y="137" text-anchor="middle" font-size="11" fill="#1a2020">Students</text><rect x="154" y="122" width="66" height="22" rx="11" fill="#f4ede2" stroke="#c6b9a5"/><text x="187.0" y="137" text-anchor="middle" font-size="11" fill="#1a2020">Teachers</text><text x="18" y="156" font-size="12" fill="#514f49">★ 0 · updated 1y ago</text><circle cx="294" cy="84" r="28" fill="none" stroke="#e6ddd1" stroke-width="10"/><circle cx="294" cy="84" r="28" fill="none" stroke="#95611f" stroke-width="10" stroke-linecap="round" transform="rotate(-90 294 84)" stroke-dasharray="169.43 6.49" stroke-dashoffset="-0.00"><animate attributeName="stroke-dasharray" values="169.43 6.49;177.91 -1.98;169.43 6.49" dur="6s" repeatCount="indefinite"/></circle><circle cx="294" cy="84" r="28" fill="none" stroke="#95611f" stroke-width="10" stroke-linecap="round" transform="rotate(-90 294 84)" stroke-dasharray="6.49 169.43" stroke-dashoffset="-169.43"><animate attributeName="stroke-dasharray" values="6.49 169.43;6.82 169.11;6.49 169.43" dur="6s" repeatCount="indefinite"/></circle><circle cx="184" cy="38" r="4" fill="#95611f"/><text x="258" y="42" text-anchor="end" font-size="10" fill="#514f49">Java 96%</text><circle cx="184" cy="56" r="4" fill="#95611f"/><text x="258" y="60" text-anchor="end" font-size="10" fill="#514f49">CSS 4%</text><text x="278" y="160" text-anchor="middle" font-size="11" fill="#514f49">← click to open</text></g></a>
<a href="https://github.com/kalaabalb/yomoblies"><g transform="translate(420 538)"><rect width="340" height="176" rx="18" fill="#ffffff" stroke="#dad4c9"/><rect x="18" y="16" width="42" height="5" rx="2.5" fill="#0f6e56"/><circle cx="32" cy="54" r="18" fill="#ecf5f0" stroke="#0f6e56"/><text x="32" y="60" text-anchor="middle" fill="#0f6e56" font-size="15" font-weight="800">YO</text><text x="60" y="50" fill="#1a2020" font-size="22" font-weight="800">yomoblies</text><text x="60" y="50" dx="107" fill="#1a2020" font-size="22" font-weight="800" opacity="0.9">_<animate attributeName="opacity" values="0;1;1;0" dur="1.1s" repeatCount="indefinite"/></text><text x="60" y="76" fill="#514f49" font-size="14"><tspan x="60" dy="0">Dart project with active</tspan><tspan x="60" dy="17">recent development.</tspan></text><rect x="18" y="122" width="54" height="22" rx="11" fill="#f4ede2" stroke="#c6b9a5"/><text x="45.0" y="137" text-anchor="middle" font-size="11" fill="#1a2020">Dart</text><rect x="80" y="122" width="54" height="22" rx="11" fill="#f4ede2" stroke="#c6b9a5"/><text x="107.0" y="137" text-anchor="middle" font-size="11" fill="#1a2020">Mobile</text><rect x="142" y="122" width="54" height="22" rx="11" fill="#f4ede2" stroke="#c6b9a5"/><text x="169.0" y="137" text-anchor="middle" font-size="11" fill="#1a2020">Active</text><text x="18" y="156" font-size="12" fill="#514f49">★ 0 · updated 7mo ago</text><circle cx="294" cy="84" r="28" fill="none" stroke="#e6ddd1" stroke-width="10"/><circle cx="294" cy="84" r="28" fill="none" stroke="#0f6e56" stroke-width="10" stroke-linecap="round" transform="rotate(-90 294 84)" stroke-dasharray="156.84 19.08" stroke-dashoffset="-0.00"><animate attributeName="stroke-dasharray" values="156.84 19.08;164.69 11.24;156.84 19.08" dur="6s" repeatCount="indefinite"/></circle><circle cx="294" cy="84" r="28" fill="none" stroke="#95611f" stroke-width="10" stroke-linecap="round" transform="rotate(-90 294 84)" stroke-dasharray="10.00 165.93" stroke-dashoffset="-156.84"><animate attributeName="stroke-dasharray" values="10.00 165.93;10.50 165.43;10.00 165.93" dur="6s" repeatCount="indefinite"/></circle><circle cx="294" cy="84" r="28" fill="none" stroke="#3b6d11" stroke-width="10" stroke-linecap="round" transform="rotate(-90 294 84)" stroke-dasharray="7.49 168.44" stroke-dashoffset="-166.84"><animate attributeName="stroke-dasharray" values="7.49 168.44;7.87 168.06;7.49 168.44" dur="6s" repeatCount="indefinite"/></circle><circle cx="184" cy="38" r="4" fill="#0f6e56"/><text x="258" y="42" text-anchor="end" font-size="10" fill="#514f49">Dart 89%</text><circle cx="184" cy="56" r="4" fill="#95611f"/><text x="258" y="60" text-anchor="end" font-size="10" fill="#514f49">C++ 6%</text><circle cx="184" cy="74" r="4" fill="#3b6d11"/><text x="258" y="78" text-anchor="end" font-size="10" fill="#514f49">CM 4%</text><text x="278" y="160" text-anchor="middle" font-size="11" fill="#514f49">← click to open</text></g></a>
</svg>